<mxfile host="65bd71144e">
    <diagram name="Page-1" id="dA-y0Xf7yJORd541E1ci">
        <mxGraphModel dx="1101" dy="482" grid="1" gridSize="10" guides="1" tooltips="1" connect="1" arrows="1" fold="1" page="1" pageScale="1" pageWidth="3000" pageHeight="3000" math="0" shadow="0">
            <root>
                <mxCell id="0"/>
                <mxCell id="1" parent="0"/>
                <mxCell id="vo460X21Ceu5LbrbuSpG-1" value="Preset Management" style="swimlane;whiteSpace=wrap;html=1;" parent="1" vertex="1">
                    <mxGeometry x="40" y="60" width="640" height="510" as="geometry"/>
                </mxCell>
                <mxCell id="vo460X21Ceu5LbrbuSpG-6" value="Post" style="swimlane;fontStyle=0;childLayout=stackLayout;horizontal=1;startSize=30;horizontalStack=0;resizeParent=1;resizeParentMax=0;resizeLast=0;collapsible=1;marginBottom=0;whiteSpace=wrap;html=1;" parent="vo460X21Ceu5LbrbuSpG-1" vertex="1">
                    <mxGeometry x="40" y="60" width="160" height="210" as="geometry"/>
                </mxCell>
                <mxCell id="vo460X21Ceu5LbrbuSpG-7" value="Preset Name" style="text;strokeColor=none;fillColor=none;align=left;verticalAlign=middle;spacingLeft=4;spacingRight=4;overflow=hidden;points=[[0,0.5],[1,0.5]];portConstraint=eastwest;rotatable=0;whiteSpace=wrap;html=1;" parent="vo460X21Ceu5LbrbuSpG-6" vertex="1">
                    <mxGeometry y="30" width="160" height="30" as="geometry"/>
                </mxCell>
                <mxCell id="vo460X21Ceu5LbrbuSpG-9" value="Daytime Temperature" style="text;strokeColor=none;fillColor=none;align=left;verticalAlign=middle;spacingLeft=4;spacingRight=4;overflow=hidden;points=[[0,0.5],[1,0.5]];portConstraint=eastwest;rotatable=0;whiteSpace=wrap;html=1;" parent="vo460X21Ceu5LbrbuSpG-6" vertex="1">
                    <mxGeometry y="60" width="160" height="30" as="geometry"/>
                </mxCell>
                <mxCell id="vo460X21Ceu5LbrbuSpG-10" value="Humidity" style="text;strokeColor=none;fillColor=none;align=left;verticalAlign=middle;spacingLeft=4;spacingRight=4;overflow=hidden;points=[[0,0.5],[1,0.5]];portConstraint=eastwest;rotatable=0;whiteSpace=wrap;html=1;" parent="vo460X21Ceu5LbrbuSpG-6" vertex="1">
                    <mxGeometry y="90" width="160" height="30" as="geometry"/>
                </mxCell>
                <mxCell id="vo460X21Ceu5LbrbuSpG-11" value="Soil Moisture" style="text;strokeColor=none;fillColor=none;align=left;verticalAlign=middle;spacingLeft=4;spacingRight=4;overflow=hidden;points=[[0,0.5],[1,0.5]];portConstraint=eastwest;rotatable=0;whiteSpace=wrap;html=1;" parent="vo460X21Ceu5LbrbuSpG-6" vertex="1">
                    <mxGeometry y="120" width="160" height="30" as="geometry"/>
                </mxCell>
                <mxCell id="vo460X21Ceu5LbrbuSpG-12" value="Daily Light Exposure" style="text;strokeColor=none;fillColor=none;align=left;verticalAlign=middle;spacingLeft=4;spacingRight=4;overflow=hidden;points=[[0,0.5],[1,0.5]];portConstraint=eastwest;rotatable=0;whiteSpace=wrap;html=1;" parent="vo460X21Ceu5LbrbuSpG-6" vertex="1">
                    <mxGeometry y="150" width="160" height="30" as="geometry"/>
                </mxCell>
                <mxCell id="vo460X21Ceu5LbrbuSpG-13" value="Daily IR Exposure" style="text;strokeColor=none;fillColor=none;align=left;verticalAlign=middle;spacingLeft=4;spacingRight=4;overflow=hidden;points=[[0,0.5],[1,0.5]];portConstraint=eastwest;rotatable=0;whiteSpace=wrap;html=1;" parent="vo460X21Ceu5LbrbuSpG-6" vertex="1">
                    <mxGeometry y="180" width="160" height="30" as="geometry"/>
                </mxCell>
                <mxCell id="vo460X21Ceu5LbrbuSpG-14" value="Put" style="swimlane;fontStyle=0;childLayout=stackLayout;horizontal=1;startSize=30;horizontalStack=0;resizeParent=1;resizeParentMax=0;resizeLast=0;collapsible=1;marginBottom=0;whiteSpace=wrap;html=1;" parent="vo460X21Ceu5LbrbuSpG-1" vertex="1">
                    <mxGeometry x="240" y="60" width="160" height="210" as="geometry"/>
                </mxCell>
                <mxCell id="vo460X21Ceu5LbrbuSpG-15" value="Preset Name" style="text;strokeColor=none;fillColor=none;align=left;verticalAlign=middle;spacingLeft=4;spacingRight=4;overflow=hidden;points=[[0,0.5],[1,0.5]];portConstraint=eastwest;rotatable=0;whiteSpace=wrap;html=1;" parent="vo460X21Ceu5LbrbuSpG-14" vertex="1">
                    <mxGeometry y="30" width="160" height="30" as="geometry"/>
                </mxCell>
                <mxCell id="vo460X21Ceu5LbrbuSpG-17" value="Daytime Temperature" style="text;strokeColor=none;fillColor=none;align=left;verticalAlign=middle;spacingLeft=4;spacingRight=4;overflow=hidden;points=[[0,0.5],[1,0.5]];portConstraint=eastwest;rotatable=0;whiteSpace=wrap;html=1;" parent="vo460X21Ceu5LbrbuSpG-14" vertex="1">
                    <mxGeometry y="60" width="160" height="30" as="geometry"/>
                </mxCell>
                <mxCell id="vo460X21Ceu5LbrbuSpG-18" value="Humidity" style="text;strokeColor=none;fillColor=none;align=left;verticalAlign=middle;spacingLeft=4;spacingRight=4;overflow=hidden;points=[[0,0.5],[1,0.5]];portConstraint=eastwest;rotatable=0;whiteSpace=wrap;html=1;" parent="vo460X21Ceu5LbrbuSpG-14" vertex="1">
                    <mxGeometry y="90" width="160" height="30" as="geometry"/>
                </mxCell>
                <mxCell id="vo460X21Ceu5LbrbuSpG-19" value="Soil Moisture" style="text;strokeColor=none;fillColor=none;align=left;verticalAlign=middle;spacingLeft=4;spacingRight=4;overflow=hidden;points=[[0,0.5],[1,0.5]];portConstraint=eastwest;rotatable=0;whiteSpace=wrap;html=1;" parent="vo460X21Ceu5LbrbuSpG-14" vertex="1">
                    <mxGeometry y="120" width="160" height="30" as="geometry"/>
                </mxCell>
                <mxCell id="vo460X21Ceu5LbrbuSpG-20" value="Daily Light Exposure" style="text;strokeColor=none;fillColor=none;align=left;verticalAlign=middle;spacingLeft=4;spacingRight=4;overflow=hidden;points=[[0,0.5],[1,0.5]];portConstraint=eastwest;rotatable=0;whiteSpace=wrap;html=1;" parent="vo460X21Ceu5LbrbuSpG-14" vertex="1">
                    <mxGeometry y="150" width="160" height="30" as="geometry"/>
                </mxCell>
                <mxCell id="vo460X21Ceu5LbrbuSpG-21" value="Daily IR Exposure" style="text;strokeColor=none;fillColor=none;align=left;verticalAlign=middle;spacingLeft=4;spacingRight=4;overflow=hidden;points=[[0,0.5],[1,0.5]];portConstraint=eastwest;rotatable=0;whiteSpace=wrap;html=1;" parent="vo460X21Ceu5LbrbuSpG-14" vertex="1">
                    <mxGeometry y="180" width="160" height="30" as="geometry"/>
                </mxCell>
                <mxCell id="vo460X21Ceu5LbrbuSpG-22" value="Get" style="swimlane;fontStyle=0;childLayout=stackLayout;horizontal=1;startSize=30;horizontalStack=0;resizeParent=1;resizeParentMax=0;resizeLast=0;collapsible=1;marginBottom=0;whiteSpace=wrap;html=1;" parent="vo460X21Ceu5LbrbuSpG-1" vertex="1">
                    <mxGeometry x="440" y="160" width="160" height="60" as="geometry"/>
                </mxCell>
                <mxCell id="vo460X21Ceu5LbrbuSpG-23" value="Preset Name" style="text;strokeColor=none;fillColor=none;align=left;verticalAlign=middle;spacingLeft=4;spacingRight=4;overflow=hidden;points=[[0,0.5],[1,0.5]];portConstraint=eastwest;rotatable=0;whiteSpace=wrap;html=1;" parent="vo460X21Ceu5LbrbuSpG-22" vertex="1">
                    <mxGeometry y="30" width="160" height="30" as="geometry"/>
                </mxCell>
                <mxCell id="vo460X21Ceu5LbrbuSpG-30" value="Delete" style="swimlane;fontStyle=0;childLayout=stackLayout;horizontal=1;startSize=30;horizontalStack=0;resizeParent=1;resizeParentMax=0;resizeLast=0;collapsible=1;marginBottom=0;whiteSpace=wrap;html=1;" parent="vo460X21Ceu5LbrbuSpG-1" vertex="1">
                    <mxGeometry x="440" y="260" width="160" height="60" as="geometry"/>
                </mxCell>
                <mxCell id="vo460X21Ceu5LbrbuSpG-31" value="Preset Name" style="text;strokeColor=none;fillColor=none;align=left;verticalAlign=middle;spacingLeft=4;spacingRight=4;overflow=hidden;points=[[0,0.5],[1,0.5]];portConstraint=eastwest;rotatable=0;whiteSpace=wrap;html=1;" parent="vo460X21Ceu5LbrbuSpG-30" vertex="1">
                    <mxGeometry y="30" width="160" height="30" as="geometry"/>
                </mxCell>
                <mxCell id="vo460X21Ceu5LbrbuSpG-152" value="Get (list of presets)" style="swimlane;fontStyle=0;childLayout=stackLayout;horizontal=1;startSize=30;horizontalStack=0;resizeParent=1;resizeParentMax=0;resizeLast=0;collapsible=1;marginBottom=0;whiteSpace=wrap;html=1;" parent="vo460X21Ceu5LbrbuSpG-1" vertex="1">
                    <mxGeometry x="440" y="60" width="160" height="60" as="geometry"/>
                </mxCell>
                <mxCell id="vo460X21Ceu5LbrbuSpG-53" value="Project Management" style="swimlane;whiteSpace=wrap;html=1;" parent="1" vertex="1">
                    <mxGeometry x="40" y="620" width="640" height="340" as="geometry"/>
                </mxCell>
                <mxCell id="vo460X21Ceu5LbrbuSpG-74" value="Post" style="swimlane;fontStyle=0;childLayout=stackLayout;horizontal=1;startSize=30;horizontalStack=0;resizeParent=1;resizeParentMax=0;resizeLast=0;collapsible=1;marginBottom=0;whiteSpace=wrap;html=1;" parent="vo460X21Ceu5LbrbuSpG-53" vertex="1">
                    <mxGeometry x="40" y="60" width="160" height="90" as="geometry"/>
                </mxCell>
                <mxCell id="vo460X21Ceu5LbrbuSpG-75" value="Project Name" style="text;strokeColor=none;fillColor=none;align=left;verticalAlign=middle;spacingLeft=4;spacingRight=4;overflow=hidden;points=[[0,0.5],[1,0.5]];portConstraint=eastwest;rotatable=0;whiteSpace=wrap;html=1;" parent="vo460X21Ceu5LbrbuSpG-74" vertex="1">
                    <mxGeometry y="30" width="160" height="30" as="geometry"/>
                </mxCell>
                <mxCell id="vo460X21Ceu5LbrbuSpG-78" value="Linked Client Ids" style="text;strokeColor=none;fillColor=none;align=left;verticalAlign=middle;spacingLeft=4;spacingRight=4;overflow=hidden;points=[[0,0.5],[1,0.5]];portConstraint=eastwest;rotatable=0;whiteSpace=wrap;html=1;" parent="vo460X21Ceu5LbrbuSpG-74" vertex="1">
                    <mxGeometry y="60" width="160" height="30" as="geometry"/>
                </mxCell>
                <mxCell id="vo460X21Ceu5LbrbuSpG-80" value="Put" style="swimlane;fontStyle=0;childLayout=stackLayout;horizontal=1;startSize=30;horizontalStack=0;resizeParent=1;resizeParentMax=0;resizeLast=0;collapsible=1;marginBottom=0;whiteSpace=wrap;html=1;" parent="vo460X21Ceu5LbrbuSpG-53" vertex="1">
                    <mxGeometry x="240" y="60" width="160" height="90" as="geometry"/>
                </mxCell>
                <mxCell id="vo460X21Ceu5LbrbuSpG-81" value="Project Name" style="text;strokeColor=none;fillColor=none;align=left;verticalAlign=middle;spacingLeft=4;spacingRight=4;overflow=hidden;points=[[0,0.5],[1,0.5]];portConstraint=eastwest;rotatable=0;whiteSpace=wrap;html=1;" parent="vo460X21Ceu5LbrbuSpG-80" vertex="1">
                    <mxGeometry y="30" width="160" height="30" as="geometry"/>
                </mxCell>
                <mxCell id="vo460X21Ceu5LbrbuSpG-83" value="Linked Client Ids" style="text;strokeColor=none;fillColor=none;align=left;verticalAlign=middle;spacingLeft=4;spacingRight=4;overflow=hidden;points=[[0,0.5],[1,0.5]];portConstraint=eastwest;rotatable=0;whiteSpace=wrap;html=1;" parent="vo460X21Ceu5LbrbuSpG-80" vertex="1">
                    <mxGeometry y="60" width="160" height="30" as="geometry"/>
                </mxCell>
                <mxCell id="vo460X21Ceu5LbrbuSpG-84" value="Get" style="swimlane;fontStyle=0;childLayout=stackLayout;horizontal=1;startSize=30;horizontalStack=0;resizeParent=1;resizeParentMax=0;resizeLast=0;collapsible=1;marginBottom=0;whiteSpace=wrap;html=1;" parent="vo460X21Ceu5LbrbuSpG-53" vertex="1">
                    <mxGeometry x="440" y="60" width="160" height="60" as="geometry"/>
                </mxCell>
                <mxCell id="vo460X21Ceu5LbrbuSpG-85" value="Project Name" style="text;strokeColor=none;fillColor=none;align=left;verticalAlign=middle;spacingLeft=4;spacingRight=4;overflow=hidden;points=[[0,0.5],[1,0.5]];portConstraint=eastwest;rotatable=0;whiteSpace=wrap;html=1;" parent="vo460X21Ceu5LbrbuSpG-84" vertex="1">
                    <mxGeometry y="30" width="160" height="30" as="geometry"/>
                </mxCell>
                <mxCell id="vo460X21Ceu5LbrbuSpG-88" value="Delete" style="swimlane;fontStyle=0;childLayout=stackLayout;horizontal=1;startSize=30;horizontalStack=0;resizeParent=1;resizeParentMax=0;resizeLast=0;collapsible=1;marginBottom=0;whiteSpace=wrap;html=1;" parent="vo460X21Ceu5LbrbuSpG-53" vertex="1">
                    <mxGeometry x="440" y="160" width="160" height="60" as="geometry"/>
                </mxCell>
                <mxCell id="vo460X21Ceu5LbrbuSpG-89" value="Project Name" style="text;strokeColor=none;fillColor=none;align=left;verticalAlign=middle;spacingLeft=4;spacingRight=4;overflow=hidden;points=[[0,0.5],[1,0.5]];portConstraint=eastwest;rotatable=0;whiteSpace=wrap;html=1;" parent="vo460X21Ceu5LbrbuSpG-88" vertex="1">
                    <mxGeometry y="30" width="160" height="30" as="geometry"/>
                </mxCell>
                <mxCell id="vo460X21Ceu5LbrbuSpG-90" value="Patch (Archive)" style="swimlane;fontStyle=0;childLayout=stackLayout;horizontal=1;startSize=30;horizontalStack=0;resizeParent=1;resizeParentMax=0;resizeLast=0;collapsible=1;marginBottom=0;whiteSpace=wrap;html=1;" parent="vo460X21Ceu5LbrbuSpG-53" vertex="1">
                    <mxGeometry x="240" y="220" width="160" height="60" as="geometry"/>
                </mxCell>
                <mxCell id="vo460X21Ceu5LbrbuSpG-91" value="Project Name" style="text;strokeColor=none;fillColor=none;align=left;verticalAlign=middle;spacingLeft=4;spacingRight=4;overflow=hidden;points=[[0,0.5],[1,0.5]];portConstraint=eastwest;rotatable=0;whiteSpace=wrap;html=1;" parent="vo460X21Ceu5LbrbuSpG-90" vertex="1">
                    <mxGeometry y="30" width="160" height="30" as="geometry"/>
                </mxCell>
                <mxCell id="vo460X21Ceu5LbrbuSpG-161" value="Get" style="swimlane;fontStyle=0;childLayout=stackLayout;horizontal=1;startSize=30;horizontalStack=0;resizeParent=1;resizeParentMax=0;resizeLast=0;collapsible=1;marginBottom=0;whiteSpace=wrap;html=1;" parent="vo460X21Ceu5LbrbuSpG-53" vertex="1">
                    <mxGeometry x="40" y="220" width="160" height="60" as="geometry"/>
                </mxCell>
                <mxCell id="vo460X21Ceu5LbrbuSpG-162" value="list projects" style="text;strokeColor=none;fillColor=none;align=left;verticalAlign=middle;spacingLeft=4;spacingRight=4;overflow=hidden;points=[[0,0.5],[1,0.5]];portConstraint=eastwest;rotatable=0;whiteSpace=wrap;html=1;" parent="vo460X21Ceu5LbrbuSpG-161" vertex="1">
                    <mxGeometry y="30" width="160" height="30" as="geometry"/>
                </mxCell>
                <mxCell id="wjvvkXkKB105N06xwtc1-11" value="Delete" style="swimlane;fontStyle=0;childLayout=stackLayout;horizontal=1;startSize=30;horizontalStack=0;resizeParent=1;resizeParentMax=0;resizeLast=0;collapsible=1;marginBottom=0;whiteSpace=wrap;html=1;" parent="vo460X21Ceu5LbrbuSpG-53" vertex="1">
                    <mxGeometry x="440" y="240" width="160" height="90" as="geometry"/>
                </mxCell>
                <mxCell id="wjvvkXkKB105N06xwtc1-12" value="Project Name" style="text;strokeColor=none;fillColor=none;align=left;verticalAlign=middle;spacingLeft=4;spacingRight=4;overflow=hidden;points=[[0,0.5],[1,0.5]];portConstraint=eastwest;rotatable=0;whiteSpace=wrap;html=1;" parent="wjvvkXkKB105N06xwtc1-11" vertex="1">
                    <mxGeometry y="30" width="160" height="30" as="geometry"/>
                </mxCell>
                <mxCell id="wjvvkXkKB105N06xwtc1-13" value="Device Name" style="text;strokeColor=none;fillColor=none;align=left;verticalAlign=middle;spacingLeft=4;spacingRight=4;overflow=hidden;points=[[0,0.5],[1,0.5]];portConstraint=eastwest;rotatable=0;whiteSpace=wrap;html=1;" parent="wjvvkXkKB105N06xwtc1-11" vertex="1">
                    <mxGeometry y="60" width="160" height="30" as="geometry"/>
                </mxCell>
                <mxCell id="vo460X21Ceu5LbrbuSpG-111" value="Device Management" style="swimlane;whiteSpace=wrap;html=1;" parent="1" vertex="1">
                    <mxGeometry x="800" y="60" width="640" height="510" as="geometry"/>
                </mxCell>
                <mxCell id="vo460X21Ceu5LbrbuSpG-126" value="Get" style="swimlane;fontStyle=0;childLayout=stackLayout;horizontal=1;startSize=30;horizontalStack=0;resizeParent=1;resizeParentMax=0;resizeLast=0;collapsible=1;marginBottom=0;whiteSpace=wrap;html=1;" parent="vo460X21Ceu5LbrbuSpG-111" vertex="1">
                    <mxGeometry x="40" y="70" width="160" height="90" as="geometry"/>
                </mxCell>
                <mxCell id="vo460X21Ceu5LbrbuSpG-127" value="Device Name" style="text;strokeColor=none;fillColor=none;align=left;verticalAlign=middle;spacingLeft=4;spacingRight=4;overflow=hidden;points=[[0,0.5],[1,0.5]];portConstraint=eastwest;rotatable=0;whiteSpace=wrap;html=1;" parent="vo460X21Ceu5LbrbuSpG-126" vertex="1">
                    <mxGeometry y="30" width="160" height="30" as="geometry"/>
                </mxCell>
                <mxCell id="vo460X21Ceu5LbrbuSpG-154" style="text;strokeColor=none;fillColor=none;align=left;verticalAlign=middle;spacingLeft=4;spacingRight=4;overflow=hidden;points=[[0,0.5],[1,0.5]];portConstraint=eastwest;rotatable=0;whiteSpace=wrap;html=1;" parent="vo460X21Ceu5LbrbuSpG-126" vertex="1">
                    <mxGeometry y="60" width="160" height="30" as="geometry"/>
                </mxCell>
                <mxCell id="vo460X21Ceu5LbrbuSpG-155" value="Get" style="swimlane;fontStyle=0;childLayout=stackLayout;horizontal=1;startSize=30;horizontalStack=0;resizeParent=1;resizeParentMax=0;resizeLast=0;collapsible=1;marginBottom=0;whiteSpace=wrap;html=1;" parent="vo460X21Ceu5LbrbuSpG-111" vertex="1">
                    <mxGeometry x="240" y="70" width="160" height="90" as="geometry"/>
                </mxCell>
                <mxCell id="vo460X21Ceu5LbrbuSpG-156" value="(gets devices list)" style="text;strokeColor=none;fillColor=none;align=left;verticalAlign=middle;spacingLeft=4;spacingRight=4;overflow=hidden;points=[[0,0.5],[1,0.5]];portConstraint=eastwest;rotatable=0;whiteSpace=wrap;html=1;" parent="vo460X21Ceu5LbrbuSpG-155" vertex="1">
                    <mxGeometry y="30" width="160" height="30" as="geometry"/>
                </mxCell>
                <mxCell id="vo460X21Ceu5LbrbuSpG-157" style="text;strokeColor=none;fillColor=none;align=left;verticalAlign=middle;spacingLeft=4;spacingRight=4;overflow=hidden;points=[[0,0.5],[1,0.5]];portConstraint=eastwest;rotatable=0;whiteSpace=wrap;html=1;" parent="vo460X21Ceu5LbrbuSpG-155" vertex="1">
                    <mxGeometry y="60" width="160" height="30" as="geometry"/>
                </mxCell>
                <mxCell id="vo460X21Ceu5LbrbuSpG-163" value="Get" style="swimlane;fontStyle=0;childLayout=stackLayout;horizontal=1;startSize=30;horizontalStack=0;resizeParent=1;resizeParentMax=0;resizeLast=0;collapsible=1;marginBottom=0;whiteSpace=wrap;html=1;" parent="vo460X21Ceu5LbrbuSpG-111" vertex="1">
                    <mxGeometry x="440" y="70" width="160" height="90" as="geometry"/>
                </mxCell>
                <mxCell id="vo460X21Ceu5LbrbuSpG-164" value="(starts a scan)" style="text;strokeColor=none;fillColor=none;align=left;verticalAlign=middle;spacingLeft=4;spacingRight=4;overflow=hidden;points=[[0,0.5],[1,0.5]];portConstraint=eastwest;rotatable=0;whiteSpace=wrap;html=1;" parent="vo460X21Ceu5LbrbuSpG-163" vertex="1">
                    <mxGeometry y="30" width="160" height="30" as="geometry"/>
                </mxCell>
                <mxCell id="vo460X21Ceu5LbrbuSpG-165" value="Requires a websocket connection" style="text;strokeColor=none;fillColor=none;align=left;verticalAlign=middle;spacingLeft=4;spacingRight=4;overflow=hidden;points=[[0,0.5],[1,0.5]];portConstraint=eastwest;rotatable=0;whiteSpace=wrap;html=1;" parent="vo460X21Ceu5LbrbuSpG-163" vertex="1">
                    <mxGeometry y="60" width="160" height="30" as="geometry"/>
                </mxCell>
                <mxCell id="wjvvkXkKB105N06xwtc1-1" value="Post" style="swimlane;fontStyle=0;childLayout=stackLayout;horizontal=1;startSize=30;horizontalStack=0;resizeParent=1;resizeParentMax=0;resizeLast=0;collapsible=1;marginBottom=0;whiteSpace=wrap;html=1;" parent="vo460X21Ceu5LbrbuSpG-111" vertex="1">
                    <mxGeometry x="40" y="200" width="160" height="150" as="geometry"/>
                </mxCell>
                <mxCell id="wjvvkXkKB105N06xwtc1-2" value="Device Name" style="text;strokeColor=none;fillColor=none;align=left;verticalAlign=middle;spacingLeft=4;spacingRight=4;overflow=hidden;points=[[0,0.5],[1,0.5]];portConstraint=eastwest;rotatable=0;whiteSpace=wrap;html=1;" parent="wjvvkXkKB105N06xwtc1-1" vertex="1">
                    <mxGeometry y="30" width="160" height="30" as="geometry"/>
                </mxCell>
                <mxCell id="wjvvkXkKB105N06xwtc1-3" value="preset" style="text;strokeColor=none;fillColor=none;align=left;verticalAlign=middle;spacingLeft=4;spacingRight=4;overflow=hidden;points=[[0,0.5],[1,0.5]];portConstraint=eastwest;rotatable=0;whiteSpace=wrap;html=1;" parent="wjvvkXkKB105N06xwtc1-1" vertex="1">
                    <mxGeometry y="60" width="160" height="30" as="geometry"/>
                </mxCell>
                <mxCell id="wjvvkXkKB105N06xwtc1-4" value="project" style="text;strokeColor=none;fillColor=none;align=left;verticalAlign=middle;spacingLeft=4;spacingRight=4;overflow=hidden;points=[[0,0.5],[1,0.5]];portConstraint=eastwest;rotatable=0;whiteSpace=wrap;html=1;" parent="wjvvkXkKB105N06xwtc1-1" vertex="1">
                    <mxGeometry y="90" width="160" height="30" as="geometry"/>
                </mxCell>
                <mxCell id="wjvvkXkKB105N06xwtc1-5" value="(this assigns the device from the scan to a project)" style="text;strokeColor=none;fillColor=none;align=left;verticalAlign=middle;spacingLeft=4;spacingRight=4;overflow=hidden;points=[[0,0.5],[1,0.5]];portConstraint=eastwest;rotatable=0;whiteSpace=wrap;html=1;" parent="wjvvkXkKB105N06xwtc1-1" vertex="1">
                    <mxGeometry y="120" width="160" height="30" as="geometry"/>
                </mxCell>
                <mxCell id="wjvvkXkKB105N06xwtc1-6" value="Delete" style="swimlane;fontStyle=0;childLayout=stackLayout;horizontal=1;startSize=30;horizontalStack=0;resizeParent=1;resizeParentMax=0;resizeLast=0;collapsible=1;marginBottom=0;whiteSpace=wrap;html=1;" parent="vo460X21Ceu5LbrbuSpG-111" vertex="1">
                    <mxGeometry x="240" y="200" width="160" height="90" as="geometry"/>
                </mxCell>
                <mxCell id="wjvvkXkKB105N06xwtc1-7" value="Device Name" style="text;strokeColor=none;fillColor=none;align=left;verticalAlign=middle;spacingLeft=4;spacingRight=4;overflow=hidden;points=[[0,0.5],[1,0.5]];portConstraint=eastwest;rotatable=0;whiteSpace=wrap;html=1;" parent="wjvvkXkKB105N06xwtc1-6" vertex="1">
                    <mxGeometry y="30" width="160" height="30" as="geometry"/>
                </mxCell>
                <mxCell id="wjvvkXkKB105N06xwtc1-10" value="(unregister a device entirely)&amp;nbsp;" style="text;strokeColor=none;fillColor=none;align=left;verticalAlign=middle;spacingLeft=4;spacingRight=4;overflow=hidden;points=[[0,0.5],[1,0.5]];portConstraint=eastwest;rotatable=0;whiteSpace=wrap;html=1;" parent="wjvvkXkKB105N06xwtc1-6" vertex="1">
                    <mxGeometry y="60" width="160" height="30" as="geometry"/>
                </mxCell>
                <mxCell id="vo460X21Ceu5LbrbuSpG-135" value="Webapp structure" style="swimlane;fontStyle=0;childLayout=stackLayout;horizontal=1;startSize=30;horizontalStack=0;resizeParent=1;resizeParentMax=0;resizeLast=0;collapsible=1;marginBottom=0;whiteSpace=wrap;html=1;" parent="1" vertex="1">
                    <mxGeometry x="40" y="1000" width="640" height="360" as="geometry"/>
                </mxCell>
                <mxCell id="vo460X21Ceu5LbrbuSpG-136" value="/" style="text;strokeColor=none;fillColor=none;align=left;verticalAlign=middle;spacingLeft=4;spacingRight=4;overflow=hidden;points=[[0,0.5],[1,0.5]];portConstraint=eastwest;rotatable=0;whiteSpace=wrap;html=1;" parent="vo460X21Ceu5LbrbuSpG-135" vertex="1">
                    <mxGeometry y="30" width="640" height="30" as="geometry"/>
                </mxCell>
                <mxCell id="vo460X21Ceu5LbrbuSpG-137" value="&lt;span style=&quot;white-space: pre;&quot;&gt;&#9;&lt;/span&gt;Presets" style="text;strokeColor=none;fillColor=none;align=left;verticalAlign=middle;spacingLeft=4;spacingRight=4;overflow=hidden;points=[[0,0.5],[1,0.5]];portConstraint=eastwest;rotatable=0;whiteSpace=wrap;html=1;" parent="vo460X21Ceu5LbrbuSpG-135" vertex="1">
                    <mxGeometry y="60" width="640" height="30" as="geometry"/>
                </mxCell>
                <mxCell id="vo460X21Ceu5LbrbuSpG-146" value="&lt;span style=&quot;white-space: pre;&quot;&gt;&#9;&lt;/span&gt;&lt;span style=&quot;white-space: pre;&quot;&gt;&#9;&lt;/span&gt;/preset_id" style="text;strokeColor=none;fillColor=none;align=left;verticalAlign=middle;spacingLeft=4;spacingRight=4;overflow=hidden;points=[[0,0.5],[1,0.5]];portConstraint=eastwest;rotatable=0;whiteSpace=wrap;html=1;" parent="vo460X21Ceu5LbrbuSpG-135" vertex="1">
                    <mxGeometry y="90" width="640" height="30" as="geometry"/>
                </mxCell>
                <mxCell id="vo460X21Ceu5LbrbuSpG-138" value="&lt;span style=&quot;white-space: pre;&quot;&gt;&#9;&lt;/span&gt;Projects" style="text;strokeColor=none;fillColor=none;align=left;verticalAlign=middle;spacingLeft=4;spacingRight=4;overflow=hidden;points=[[0,0.5],[1,0.5]];portConstraint=eastwest;rotatable=0;whiteSpace=wrap;html=1;" parent="vo460X21Ceu5LbrbuSpG-135" vertex="1">
                    <mxGeometry y="120" width="640" height="30" as="geometry"/>
                </mxCell>
                <mxCell id="vo460X21Ceu5LbrbuSpG-139" value="&lt;span style=&quot;white-space: pre;&quot;&gt;&#9;&lt;/span&gt;&lt;span style=&quot;white-space: pre;&quot;&gt;&#9;&lt;/span&gt;Active" style="text;strokeColor=none;fillColor=none;align=left;verticalAlign=middle;spacingLeft=4;spacingRight=4;overflow=hidden;points=[[0,0.5],[1,0.5]];portConstraint=eastwest;rotatable=0;whiteSpace=wrap;html=1;" parent="vo460X21Ceu5LbrbuSpG-135" vertex="1">
                    <mxGeometry y="150" width="640" height="30" as="geometry"/>
                </mxCell>
                <mxCell id="vo460X21Ceu5LbrbuSpG-142" value="&lt;blockquote style=&quot;margin: 0 0 0 40px; border: none; padding: 0px;&quot;&gt;&lt;blockquote style=&quot;margin: 0 0 0 40px; border: none; padding: 0px;&quot;&gt;/project_id&lt;/blockquote&gt;&lt;/blockquote&gt;" style="text;strokeColor=none;fillColor=none;align=left;verticalAlign=middle;spacingLeft=4;spacingRight=4;overflow=hidden;points=[[0,0.5],[1,0.5]];portConstraint=eastwest;rotatable=0;whiteSpace=wrap;html=1;" parent="vo460X21Ceu5LbrbuSpG-135" vertex="1">
                    <mxGeometry y="180" width="640" height="30" as="geometry"/>
                </mxCell>
                <mxCell id="vo460X21Ceu5LbrbuSpG-140" value="&lt;span style=&quot;white-space: pre;&quot;&gt;&#9;&lt;/span&gt;&lt;span style=&quot;white-space: pre;&quot;&gt;&#9;&lt;/span&gt;Archived" style="text;strokeColor=none;fillColor=none;align=left;verticalAlign=middle;spacingLeft=4;spacingRight=4;overflow=hidden;points=[[0,0.5],[1,0.5]];portConstraint=eastwest;rotatable=0;whiteSpace=wrap;html=1;" parent="vo460X21Ceu5LbrbuSpG-135" vertex="1">
                    <mxGeometry y="210" width="640" height="30" as="geometry"/>
                </mxCell>
                <mxCell id="vo460X21Ceu5LbrbuSpG-144" value="&lt;span style=&quot;white-space: pre;&quot;&gt;&#9;&lt;/span&gt;&lt;span style=&quot;white-space: pre;&quot;&gt;&#9;&lt;/span&gt;&lt;span style=&quot;white-space: pre;&quot;&gt;&#9;&lt;/span&gt;/project_id" style="text;strokeColor=none;fillColor=none;align=left;verticalAlign=middle;spacingLeft=4;spacingRight=4;overflow=hidden;points=[[0,0.5],[1,0.5]];portConstraint=eastwest;rotatable=0;whiteSpace=wrap;html=1;" parent="vo460X21Ceu5LbrbuSpG-135" vertex="1">
                    <mxGeometry y="240" width="640" height="30" as="geometry"/>
                </mxCell>
                <mxCell id="vo460X21Ceu5LbrbuSpG-141" value="&lt;span style=&quot;white-space: pre;&quot;&gt;&#9;&lt;/span&gt;Registered Devices" style="text;strokeColor=none;fillColor=none;align=left;verticalAlign=middle;spacingLeft=4;spacingRight=4;overflow=hidden;points=[[0,0.5],[1,0.5]];portConstraint=eastwest;rotatable=0;whiteSpace=wrap;html=1;" parent="vo460X21Ceu5LbrbuSpG-135" vertex="1">
                    <mxGeometry y="270" width="640" height="30" as="geometry"/>
                </mxCell>
                <mxCell id="vo460X21Ceu5LbrbuSpG-147" value="&lt;span style=&quot;white-space: pre;&quot;&gt;&#9;&lt;/span&gt;&lt;span style=&quot;white-space: pre;&quot;&gt;&#9;&lt;/span&gt;/device_id" style="text;strokeColor=none;fillColor=none;align=left;verticalAlign=middle;spacingLeft=4;spacingRight=4;overflow=hidden;points=[[0,0.5],[1,0.5]];portConstraint=eastwest;rotatable=0;whiteSpace=wrap;html=1;" parent="vo460X21Ceu5LbrbuSpG-135" vertex="1">
                    <mxGeometry y="300" width="640" height="30" as="geometry"/>
                </mxCell>
                <mxCell id="vo460X21Ceu5LbrbuSpG-151" value="&lt;span style=&quot;white-space: pre;&quot;&gt;&#9;&lt;/span&gt;&lt;span style=&quot;white-space: pre;&quot;&gt;&#9;&lt;/span&gt;/scan" style="text;strokeColor=none;fillColor=none;align=left;verticalAlign=middle;spacingLeft=4;spacingRight=4;overflow=hidden;points=[[0,0.5],[1,0.5]];portConstraint=eastwest;rotatable=0;whiteSpace=wrap;html=1;" parent="vo460X21Ceu5LbrbuSpG-135" vertex="1">
                    <mxGeometry y="330" width="640" height="30" as="geometry"/>
                </mxCell>
            </root>
        </mxGraphModel>
    </diagram>
</mxfile>